# xmcd
#
# Track frame offsets: 
#        150
#        15881
#        29497
#        42495
#        55674
#        69358
#        82987
#        95724
#        110269
#        123793
#        139066
#        152923
#        165289
#        179023
#        193750
#        208101
#        220699
#        234492
#        248864
#        262403
#        275103
#        288709
#        303107
#        316740
#        330401
#
# Disc length: 4589 seconds
#
# Revision: 0
# Processed by: cddbd v1.5.2PL0 Copyright (c) Steve Scherf et al.
# Submitted via: ExactAudioCopy v1.0b3
#
DISCID=6611eb19
DTITLE=Various Artist - Compilation The OKeh Blues Story cd1
DYEAR=2013
DGENRE=Blues
TTITLE0=Mamie Smith and Her Jazz Hounds - Crazy Blues
TTITLE1=Blind Lemon Jefferson - Black Snake Moan
TTITLE2=Sonny Terry - Blowin' The Blues
TTITLE3=Lonnie Johnson - Wrong Woman Blues
TTITLE4=Roosevlet Sykes - 44. Blues
TTITLE5=Georgia Bill (Blind Willie Mctell) - Scarey Day Blues
TTITLE6=Champion Jack Dupree - Warehouse Man Blues
TTITLE7=Victoria Spivey - T.B. Blues
TTITLE8=Sylvester Weaver - Guitar Rag
TTITLE9=Mary Copeland - Penetrating Blues
TTITLE10=Texas Alexander - Levee Camp Moan Blues
TTITLE11=Irene Scruggs - Sorrow Valley Blues
TTITLE12=Little Hat Jones - Rolled From Side To Side Blues
TTITLE13=Eva Taylor - Irresistible Blues
TTITLE14=Snitcher Roberts - Low Moaning Blues
TTITLE15=Rosa Henderson - Everywomans Blues
TTITLE16=Uncle Bud Walker - Stand Up Suitcase Blues
TTITLE17=Alberta Hunter - Your Jelly Roll Is Good
TTITLE18=Charlie McCoy and Bo Carter - That Lonesome Train Took My Baby 
TTITLE18=Away
TTITLE19=Sippie Wallace - Walkin' Talkin' Blues
TTITLE20=Peter Chatman and His Washboard Band - Miss Ora Lee Blues
TTITLE21=Papa Freddie - Muddy Water Blues
TTITLE22=Peter Cleighton - Something Going On Wrong
TTITLE23=Hambone Willie Newbern - Roll and Tumble Blues
TTITLE24=Mississippi Sheiks - Sitting On Top Of The World
EXTD=
EXTT0=
EXTT1=
EXTT2=
EXTT3=
EXTT4=
EXTT5=
EXTT6=
EXTT7=
EXTT8=
EXTT9=
EXTT10=
EXTT11=
EXTT12=
EXTT13=
EXTT14=
EXTT15=
EXTT16=
EXTT17=
EXTT18=
EXTT19=
EXTT20=
EXTT21=
EXTT22=
EXTT23=
EXTT24=
PLAYORDER=
